<svg width="100" height="100" viewBox="0 0 100 100" preserveAspectRatio="xMidYMid meet" xmlns="http://www.w3.org/2000/svg">
	<rect fill="#DC472E" width="100" height="100"/>
	<path fill="#FFFFFF" d="M57.8,64c0-0.4-0.1-0.8-0.3-1.1c-0.2-0.5-0.6-0.7-1.1-0.7c-0.6-0.1-1,0.2-1.5,0.6c-0.2,0.1-0.2,0.4-0.2,0.4l0,11.8v0.3c0,0,0.1,0.1,0.1,0.2c0.3,0.4,0.7,0.7,1.3,0.8c0.8,0.2,1.4-0.2,1.6-1c0-0.2,0.1-0.4,0.1-0.6C57.8,71.1,57.8,67.5,57.8,64z M57.8,64c0-0.4-0.1-0.8-0.3-1.1c-0.2-0.5-0.6-0.7-1.1-0.7c-0.6-0.1-1,0.2-1.5,0.6c-0.2,0.1-0.2,0.4-0.2,0.4l0,11.8v0.3c0,0,0.1,0.1,0.1,0.2c0.3,0.4,0.7,0.7,1.3,0.8c0.8,0.2,1.4-0.2,1.6-1c0-0.2,0.1-0.4,0.1-0.6C57.8,71.1,57.8,67.5,57.8,64z M71,46.2c-14-0.3-28-0.3-42.1,0c-4.9,0.1-8.8,4.1-8.8,8.9V77c0,4.9,3.9,8.8,8.8,8.9c14,0.3,28,0.3,42.1,0c4.9-0.1,8.8-4.1,8.8-8.9V55.1C79.8,50.2,75.9,46.3,71,46.2z M33.1,79h-4V56.1h-4.2v-3.8h12.4v3.8h-4.2V79zM47.6,69.5V79H44v-2.2c-0.1,0.1-0.2,0.2-0.3,0.3c-0.8,0.9-1.6,1.6-2.8,2c-0.5,0.2-1.1,0.3-1.7,0.2c-0.8-0.1-1.3-0.6-1.6-1.3c-0.3-0.7-0.4-1.4-0.4-2.1c0-2.6,0-16.4,0-16.6h3.6c0,0.1,0,10,0,14.9c0,0.3,0,0.5,0.1,0.8c0.1,0.6,0.6,0.9,1.3,0.7c0.7-0.3,1.3-0.8,1.7-1.4C44,74.2,44,74.1,44,74V59.3l3.6,0C47.6,59.3,47.6,66.2,47.6,69.5z M61.2,77.1c-0.5,1.4-1.5,2.2-3,2.2c-1.2,0-2.2-0.5-3.1-1.4c-0.1-0.1-0.3-0.4-0.3-0.4V79h-3.6V52.3h3.6c0,2.8,0,8.8,0,8.8s0.2-0.4,0.4-0.6c0.6-0.6,1.2-1.1,2.1-1.3c1.4-0.3,3,0.1,3.7,1.7c0.4,1,0.6,2,0.6,3c0,3.7,0,7.5,0,11.2C61.5,75.7,61.4,76.4,61.2,77.1z M74.4,76.3c-0.6,1.8-1.9,2.8-3.8,3.1c-1.2,0.2-2.3,0.1-3.4-0.3c-1.5-0.7-2.3-1.9-2.7-3.5c-0.2-0.7-0.3-1.5-0.3-2.2c0-2.9,0-5.8,0-8.8c0-1.5,0.4-2.9,1.4-4.1c1.2-1.3,2.7-1.8,4.5-1.7c0.5,0,1.1,0.1,1.6,0.3c1.7,0.6,2.6,1.8,3,3.5c0.1,0.6,0.2,1.3,0.2,2c0,1.6,0,5,0,5h-6.9v4.9c0,0.9,0.7,1.6,1.6,1.6c0.9,0,1.6-0.7,1.6-1.6V72h3.7C74.8,72,74.9,75,74.4,76.3z M71.1,63.8c0-0.9-0.7-1.6-1.6-1.6c-0.9,0-1.6,0.7-1.6,1.6v2.8h3.2V63.8z M57.5,62.9c-0.2-0.5-0.6-0.7-1.1-0.7c-0.6-0.1-1,0.2-1.5,0.6c-0.2,0.1-0.2,0.4-0.2,0.4l0,11.8v0.3c0,0,0.1,0.1,0.1,0.2c0.3,0.4,0.7,0.7,1.3,0.8c0.8,0.2,1.4-0.2,1.6-1c0-0.2,0.1-0.4,0.1-0.6c0-3.5,0-7.1,0-10.6C57.8,63.6,57.7,63.3,57.5,62.9z"/>
	<path fill="#FFFFFF" d="M66.7,20.8l0,19.8H63l0-2.1c-0.4,0.4-0.8,0.8-1.1,1.1c-0.7,0.6-1.4,1-2.3,1.2c-1.4,0.3-2.5-0.2-3-1.6c-0.1-0.5-0.2-1-0.2-1.5V20.8H60v15.1c0,0.2,0,0.4,0.1,0.6c0.1,0.6,0.6,0.9,1.2,0.7c0.7-0.3,1.3-0.8,1.8-1.4c0.1-0.1,0.1-0.2,0.1-0.4V20.8H66.7z"/>
	<path fill="#FFFFFF" d="M36.3,24.3c-0.8-3.4-2.5-10.4-2.5-10.4h-4.2c0,0,3.2,10.6,4.6,15.4c0.1,0.2,0.1,0.4,0.1,0.5l0,10.9h3.9l0-10.9c0-0.2,0-0.4,0.1-0.5c1.4-4.7,4.6-15.4,4.6-15.4h-4.2C38.8,13.8,37.1,20.9,36.3,24.3L36.3,24.3z"/>
	<path fill="#FFFFFF" d="M48,20.3L48,20.3c-2.9,0-5.3,2.4-5.3,5.3v10.3c0,2.9,2.4,5.3,5.3,5.3l0,0c2.9,0,5.3-2.4,5.3-5.3V25.6C53.3,22.7,50.9,20.3,48,20.3z M49.5,36.1c0,0.8-0.7,1.5-1.5,1.5c-0.8,0-1.5-0.7-1.5-1.5V25.4c0-0.8,0.7-1.5,1.5-1.5c0.8,0,1.5,0.7,1.5,1.5V36.1z"/>
</svg>
