<svg width="100" height="100" viewBox="0 0 100 100" preserveAspectRatio="xMidYMid meet" xmlns="http://www.w3.org/2000/svg">
	<rect fill="#0084B1" width="100" height="100"/>
	<path fill="#FFFFFF" d="M23.5,15.2c4.6,0,8.4,3.8,8.3,8.4c0,4.8-4,8.5-8.4,8.3c-4.5,0.1-8.4-3.6-8.4-8.4C15.1,18.9,18.9,15.2,23.5,15.2z"/>
	<path fill="#FFFFFF" d="M28.4,84.8h-9.8c-1.3,0-2.3-1-2.3-2.3V40.6c0-1.3,1-2.3,2.3-2.3h9.8c1.3,0,2.3,1,2.3,2.3v41.9C30.7,83.8,29.7,84.8,28.4,84.8z"/>
	<path fill="#FFFFFF" d="M84.9,53c0-8.8-7.1-15.9-15.9-15.9h-2.5c-4.8,0-9,2.4-11.6,6.1c-0.3,0.4-0.5,0.8-0.8,1.2c-0.1,0-0.1,0-0.1,0v-5.1c0-0.5-0.4-1-1-1H40.8c-0.5,0-1,0.4-1,1v44.6c0,0.5,0.4,1,1,1l12.5,0c0.5,0,1-0.4,1-1V58.1c0-4.4,3.5-8.1,8-8.2c2.3,0,4.3,0.9,5.8,2.4c1.5,1.5,2.4,3.5,2.4,5.7v25.9c0,0.5,0.4,1,1,1l12.5,0c0.5,0,1-0.4,1-1L84.9,53L84.9,53z"/>
</svg>