<svg width="100" height="100" viewBox="0 0 100 100" preserveAspectRatio="xMidYMid meet" xmlns="http://www.w3.org/2000/svg">
	<rect fill="#000000" y="0" width="100" height="103.7"/>
	<path fill="#B0D238" d="M91.5,8.5v86.7H8.5V8.5H91.5 M100,0H0v103.7h100V0L100,0z"/>
	<path fill="#B0D238" d="M76.5,60.2c-1,0-1.8,0.5-2.2,1.3h-5.7L59,41.3c-1.5,2-3.7,3.4-6.2,4.1l7.6,16.1h-8v-2.9c0-0.4-0.3-0.7-0.7-0.7h-2.5c-0.4,0-0.7,0.3-0.7,0.7v2.9h-9.3l7.8-16.1c-2.5-0.7-4.7-2.1-6.2-4.1l-9.8,20.2h-5.7c-0.4-0.8-1.3-1.3-2.2-1.3c-1.4,0-2.6,1.1-2.6,2.6s1.1,2.6,2.6,2.6c1,0,1.8-0.5,2.2-1.3h4.5L25.1,74c-0.7,1.4-0.4,3,0.6,4l-1.6,3.2c-0.3,0.7,0,1.5,0.6,1.8c0.7,0.3,1.5,0,1.8-0.6l1.5-3.2c1.5,0.2,3-0.6,3.7-2.1l6.4-13.3h10.4V67c0,0.4,0.3,0.7,0.7,0.7h2.5c0.4,0,0.7-0.3,0.7-0.7v-3.1h9.1l6.3,13.3c0.6,1.3,2,2.1,3.3,2.1c0.1,0,0.1,0,0.2,0l1.5,3.1c0.2,0.5,0.7,0.8,1.2,0.8c0.2,0,0.4,0,0.6-0.1c0.7-0.3,1-1.1,0.6-1.8l-1.5-3.1c1-1.1,1.4-2.7,0.7-4.1l-4.8-10.1h4.6c0.4,0.8,1.3,1.3,2.2,1.3c1.4,0,2.6-1.1,2.6-2.6S77.9,60.2,76.5,60.2z"/>
	<path fill="#B0D238" d="M54.1,23.7v-3.6c0-0.7-0.6-1.3-1.3-1.3h-1.8v-4.1c0-0.5-0.4-0.9-0.9-0.9s-0.9,0.4-0.9,0.9v4.1h-2c-0.7,0-1.3,0.6-1.3,1.3v3.7c1.3-0.5,2.7-0.8,4.2-0.8C51.4,23,52.8,23.2,54.1,23.7z"/>
	<path fill="#B0D238" d="M42.5,38c1.1,2.3,3.3,4.1,6,4.6l0,0c0.5,0.1,1,0.1,1.5,0.1c0.5,0,1,0,1.4-0.1l0,0c0,0,0.1,0,0.1,0c0.1,0,0.1,0,0.2,0c0.1,0,0.1,0,0.2,0c0.1,0,0.2-0.1,0.3-0.1c0,0,0.1,0,0.1,0c3.4-1,5.9-4.2,5.9-8c0-3.4-2-6.3-4.9-7.6c0,0,0,0,0,0c0,0,0,0,0,0c-0.1-0.1-0.2-0.1-0.3-0.1c0,0-0.1,0-0.1,0c-0.1,0-0.2-0.1-0.3-0.1c-0.1,0-0.1,0-0.2-0.1c-0.1,0-0.1,0-0.2-0.1c-0.1,0-0.2,0-0.2-0.1c0,0-0.1,0-0.1,0c-0.6-0.2-1.3-0.3-2-0.3c-1.3,0-2.5,0.3-3.5,0.8c0,0,0,0,0,0c-2.8,1.3-4.8,4.2-4.8,7.5C41.7,35.7,42,36.9,42.5,38L42.5,38z M53.4,34.4c0,1.9-1.5,3.4-3.4,3.4c-1.9,0-3.4-1.5-3.4-3.4c0-1.9,1.5-3.4,3.4-3.4C51.9,30.9,53.4,32.5,53.4,34.4z"/>
</svg>