<svg width="100" height="100" viewBox="0 0 100 100" preserveAspectRatio="xMidYMid meet" xmlns="http://www.w3.org/2000/svg">
	<rect fill="#50ABF1" width="100" height="100"/>
	<path fill="#FFFFFF" d="M13.2,74.1c6.7,4.2,14.5,6.7,23,6.7c23.8,0,43-19.3,43-43c0-0.6,0-1.2,0-1.8c0.9-0.7,6.2-4.9,7.5-7.7c0,0-4.3,1.8-8.5,2.2c0,0,0,0,0,0c0,0,0,0,0,0c0.4-0.3,5.8-4,6.6-8.4c0,0-3.1,1.6-7.3,3.1c-0.7,0.2-1.4,0.5-2.2,0.7c-2.8-2.9-6.7-4.8-11-4.8c-8.3,0-15.1,6.8-15.1,15.1c0,1.2,0.1,2.3,0.4,3.4c-1.2,0-18.9-1-31-15.7c0,0-7.2,9.9,4.3,20c0,0-3.5-0.1-6.5-1.9c0,0-1.1,11.9,11.9,15c0,0-2.6,1-6.7,0.3c0,0,2.3,9.6,13.9,10.5C35.4,67.8,26.3,76.1,13.2,74.1L13.2,74.1z"/>
</svg>
